<svg width="24" height="45" viewBox="0 0 24 45" fill="none" xmlns="http://www.w3.org/2000/svg">
<path fill-rule="evenodd" clip-rule="evenodd" d="M0.565898 0.698096C0.724235 0.540269 0.912334 0.41505 1.11942 0.329612C1.32651 0.244174 1.54851 0.200195 1.77272 0.200195C1.99692 0.200195 2.21893 0.244174 2.42601 0.329612C2.6331 0.41505 2.8212 0.540269 2.97953 0.698096L23.4341 21.0353C23.5928 21.1927 23.7188 21.3797 23.8047 21.5856C23.8906 21.7915 23.9349 22.0122 23.9349 22.2351C23.9349 22.4581 23.8906 22.6788 23.8047 22.8847C23.7188 23.0906 23.5928 23.2776 23.4341 23.435L2.97953 43.7722C2.65947 44.0904 2.22536 44.2692 1.77272 44.2692C1.32007 44.2692 0.885966 44.0904 0.565898 43.7722C0.24583 43.454 0.066017 43.0224 0.066017 42.5723C0.066017 42.1223 0.24583 41.6906 0.565898 41.3724L19.817 22.2351L0.565898 3.09788C0.40716 2.94045 0.281218 2.75343 0.195286 2.54754C0.109355 2.34164 0.0651245 2.12091 0.0651245 1.89799C0.0651245 1.67507 0.109355 1.45434 0.195286 1.24844C0.281218 1.04254 0.40716 0.855525 0.565898 0.698096Z" fill="white"/>
</svg>
